# xmcd
# 
# Track frame offsets:
#     182
#     14870
#     28020
#     38807
#     53770
#     66045
#     80607
#     91807
#     104270
#     115307
#     130695
#     140120
#     152407
#     161670
#     170807
#     182845
# 
# Disc length: 2671
# 
# Revision: 11
# Processed by: cddbd v1.5.2PL0 Copyright (c) Steve Scherf et al.
# Submitted via: fre:ac v1.0.31
# 
DISCID=d90a6d10
DTITLE=Amália Rodriguez - Queen of the Fado
DYEAR=1990
DGENRE=Folk
TTITLE0=Triste Sina
TTITLE1=Céu Da Minha Rua
TTITLE2=O Namorico Da Rita
TTITLE3=Conta Errada
TTITLE4=Fadista Louco
TTITLE5=As Rosas Do Meu Caminho
TTITLE6=Fado Marujo
TTITLE7=Fado Das Tamanquinhas
TTITLE8=Fado Da Adiça
TTITLE9=Raizes
TTITLE10=Bailaricos
TTITLE11=Fado Alfacinha
TTITLE12=Jób
TTITLE13=Anjo Inutil
TTITLE14=Quando Os Outros Te Batem, Beijo-Te Eu
TTITLE15=Fado Final
EXTD=YEAR: 1996
EXTT0=
EXTT1=
EXTT2=
EXTT3=
EXTT4=
EXTT5=
EXTT6=
EXTT7=
EXTT8=
EXTT9=
EXTT10=
EXTT11=
EXTT12=
EXTT13=
EXTT14=
EXTT15=
PLAYORDER=
